<?xml version="1.0" encoding="UTF-8"?>
<svg id="Layer_1" width="249.93" height="34.32" version="1.1" viewBox="0 0 249.93 34.32" xml:space="preserve" xmlns="http://www.w3.org/2000/svg" xmlns:cc="http://creativecommons.org/ns#" xmlns:dc="http://purl.org/dc/elements/1.1/" xmlns:rdf="http://www.w3.org/1999/02/22-rdf-syntax-ns#"><metadata id="metadata59"><rdf:RDF><cc:Work rdf:about=""><dc:format>image/svg+xml</dc:format><dc:type rdf:resource="http://purl.org/dc/dcmitype/StillImage"/><dc:title/><cc:license rdf:resource=""/></cc:Work></rdf:RDF></metadata><style id="style2" type="text/css">
	.st0{fill:#FFFFFF;}
	.st1{fill:none;}
	.st2{fill:#FCFCFC;}
</style><g id="g52"><rect id="rect1496" width="249.93" height="34.32" style="paint-order:normal"/><path id="path4" class="st0" d="m1.17 1.17h48.58v31.97h-48.58zm-1.17-1.17v34.31h50.92v-34.31z" fill="#fff"/><polygon id="polygon6" class="st0" points="15.6 12.33 15.6 23.9 13.41 23.9 13.41 12.33 10.01 12.33 10.01 10.42 19 10.42 19 12.33" fill="#fff"/><polygon id="polygon8" class="st0" points="29.48 10.42 29.48 23.9 27.29 23.9 27.29 18.04 22.05 18.04 22.05 23.9 19.86 23.9 19.86 10.42 22.05 10.42 22.05 16.1 27.29 16.1 27.29 10.42" fill="#fff"/><polygon id="polygon10" class="st0" points="38.82 16.12 38.82 18.02 34.19 18.02 34.19 21.98 39.72 21.98 39.72 23.9 32 23.9 32 10.42 39.72 10.42 39.72 12.31 34.19 12.31 34.19 16.12" fill="#fff"/><path id="path12" class="st0" d="m50.91 1.17h98.33v31.97h-98.33zm-1.17-1.17v34.31h100.67v-34.31z" fill="#fff"/><path id="path14" class="st0" d="m62.14 10.42h2.36l4.03 7.89c0.35 0.68 0.72 1.72 1.04 2.54h0.14c-0.14-1.09-0.21-2.25-0.21-3.01v-7.42h2.17v13.48h-2.35l-3.97-7.75c-0.43-0.86-0.74-1.68-1.09-2.64h-0.14c0.1 0.86 0.21 2.11 0.21 3.14v7.25h-2.19z" fill="#fff"/><path id="path16" class="st0" d="m79.78 18.8-1.06-3.95c-0.2-0.7-0.35-1.39-0.55-2.38h-0.12c-0.19 0.98-0.31 1.62-0.53 2.38l-1.07 3.95zm-2.99-8.38h2.66l3.89 13.48h-2.23l-0.92-3.28h-4.14l-0.9 3.28h-2.27z" fill="#fff"/><rect id="rect18" class="st1" width="249.93" height="34.32" fill="none"/><polygon id="polygon20" class="st0" points="87.89 12.33 87.89 23.9 85.7 23.9 85.7 12.33 82.3 12.33 82.3 10.42 91.29 10.42 91.29 12.33" fill="#fff"/><rect id="rect22" class="st0" x="92.4" y="10.42" width="2.19" height="13.48" fill="#fff"/><path id="path24" class="st0" d="m104.8 17.18c0-3.32-1.04-5.04-3.03-5.04-2.01 0-3.03 1.72-3.03 5.04 0 3.3 1.02 5 3.03 5 2 0 3.03-1.7 3.03-5m-8.36 0c0-4.39 1.92-6.95 5.34-6.95 3.4 0 5.32 2.56 5.32 6.95 0 4.37-1.92 6.91-5.32 6.91-3.43 0-5.34-2.54-5.34-6.91" fill="#fff"/><path id="path26" class="st0" d="m109.06 10.42h2.36l4.03 7.89c0.35 0.68 0.72 1.72 1.04 2.54h0.14c-0.14-1.09-0.21-2.25-0.21-3.01v-7.42h2.17v13.48h-2.35l-3.97-7.75c-0.43-0.86-0.74-1.68-1.09-2.64h-0.14c0.1 0.86 0.21 2.11 0.21 3.14v7.25h-2.19z" fill="#fff"/><path id="path28" class="st0" d="m126.75 18.8-1.06-3.95c-0.2-0.7-0.35-1.39-0.55-2.38h-0.12c-0.2 0.98-0.31 1.62-0.53 2.38l-1.07 3.95zm-2.99-8.38h2.66l3.89 13.48h-2.23l-0.92-3.28h-4.14l-0.9 3.28h-2.27z" fill="#fff"/><rect id="rect30" class="st1" width="249.93" height="34.32" fill="none"/><polygon id="polygon32" class="st0" points="131.49 23.9 131.49 10.42 133.68 10.42 133.68 21.98 138.94 21.98 138.94 23.9" fill="#fff"/><path id="path34" class="st0" d="m150.43 1.17h98.33v31.97h-98.33zm-1.18 33.15h100.67v-34.32h-100.67z" fill="#fff"/><path id="path36" class="st0" d="m166.17 18.76-1.06-3.95c-0.2-0.7-0.35-1.39-0.55-2.38h-0.12c-0.2 0.98-0.31 1.62-0.53 2.38l-1.07 3.95zm-2.99-8.38h2.66l3.89 13.48h-2.23l-0.92-3.28h-4.14l-0.9 3.28h-2.27z" fill="#fff"/><path id="path38" class="st0" d="m174.38 17.08c1.58 0 2.13-1.02 2.13-2.42 0-1.37-0.61-2.42-2.13-2.42h-1.68v4.84zm-3.85-6.7h4.03c2.85 0 4.22 1.54 4.22 4.14 0 1.95-0.94 3.52-2.33 3.94v0.12c0.64 0.72 2.5 4.75 3.01 4.96v0.31h-2.36c-0.63-0.35-2.29-4.53-2.8-4.88h-1.58v4.88h-2.19z" fill="#fff"/><path id="path40" class="st0" d="m182.52 17.08c0 3.36 1.17 5.06 2.99 5.06 1.8 0 2.52-1.27 2.5-3.26l2.19 0.08c0.02 0.1 0.04 0.27 0.04 0.37 0 2.77-1.35 4.73-4.71 4.73-3.24 0-5.34-2.44-5.34-6.97 0-4.43 2.09-6.89 5.34-6.89 4.05 0 4.73 2.91 4.73 4.53 0 0.2-0.02 0.45-0.04 0.57l-2.21 0.08c0.02-2.07-0.72-3.26-2.5-3.26-1.8-0.02-2.99 1.72-2.99 4.96" fill="#fff"/><polygon id="polygon42" class="st0" points="201.64 10.38 201.64 23.86 199.45 23.86 199.45 18 194.22 18 194.22 23.86 192.03 23.86 192.03 10.38 194.22 10.38 194.22 16.06 199.45 16.06 199.45 10.38" fill="#fff"/><rect id="rect44" class="st0" x="204.54" y="10.38" width="2.19" height="13.48" fill="#fff"/><path id="path46" class="st0" d="m208.5 10.38h2.29l2.03 7.75c0.31 1.21 0.49 2.28 0.7 3.53h0.16c0.22-1.27 0.39-2.32 0.7-3.53l2.01-7.75h2.29l-3.81 13.48h-2.56z" fill="#fff"/><polygon id="polygon48" class="st2" points="227 16.08 227 17.98 222.37 17.98 222.37 21.94 227.9 21.94 227.9 23.86 220.18 23.86 220.18 10.38 227.9 10.38 227.9 12.28 222.37 12.28 222.37 16.08" fill="#fcfcfc"/><path id="path50" class="st2" d="m231.32 19.29c-0.02 0.16-0.04 0.33-0.04 0.49 0 1.21 0.49 2.34 2.15 2.34 1.35 0 2.07-0.74 2.07-1.82 0-0.98-0.43-1.54-1.41-1.89l-2.17-0.8c-1.52-0.57-2.66-1.54-2.66-3.61 0-2.23 1.47-3.81 4.16-3.81 3.44 0 4.05 2.27 4.05 3.69 0 0.21-0.02 0.45-0.06 0.66l-2.15 0.04c0.02-0.14 0.04-0.33 0.04-0.47 0-1.05-0.37-1.99-1.92-1.99-1.31 0-1.9 0.78-1.9 1.78 0 1.09 0.59 1.56 1.39 1.86l2.21 0.8c1.66 0.61 2.68 1.66 2.68 3.63 0 2.27-1.5 3.87-4.4 3.87-3.69 0-4.3-2.46-4.3-4.06 0-0.19 0.02-0.41 0.06-0.62z" fill="#fcfcfc"/></g></svg>
